#!OML:ASF H:\MichaelJackson\Top Level 1\Subject 1\Session 1\male.ASF
:FULLY-SPECIFIED
:DEGREES
238
root 4.78415 16.7324 -25.6028 9.79594 -0.604914 0.6697
lowerback -6.01142 -0.110436 -3.91665
upperback -1.16612 0.0530369 1.95324
thorax 2.16174 -0.00243348 4.22892
lowerneck -7.59533 2.57862 -3.34197
upperneck -0.248814 3.71891 0.294232
head 1.12729 1.86033 0.770078
rclavicle 2.73329e-015 1.63003e-014
rhumerus -38.5309 6.25756 -88.9816
rradius 31.8274
rwrist 16.8602
rhand -25.5792 -21.2547
rfingers 7.12502
rthumb 0.952126 -51.2323
lclavicle 2.73329e-015 1.63003e-014
lhumerus -38.8137 1.8482 92.7041
lradius 39.2316
lwrist 7.36308
lhand -13.7842 6.28919
lfingers 7.12502
lthumb 12.3372 35.9052
rfemur -21.6486 0.77341 19.2354
rtibia 37.8973
rfoot -24.4442 -10.7279
rtoes 17.3586
lfemur -20.3583 4.72019 -22.5285
ltibia 37.1898
lfoot -26.5507 0.371305
ltoes 10.589
239
root 4.78032 16.7275 -25.6087 9.82599 -0.605031 0.631618
lowerback -5.83536 -0.106215 -3.82381
upperback -1.16049 0.0468218 1.95836
thorax 2.06995 -0.00290495 4.18004
lowerneck -7.5282 2.50327 -3.43627
upperneck -0.572653 3.62031 0.359028
head 1.01203 1.81632 0.797105
rclavicle 5.71506e-015 -1.59028e-015
rhumerus -38.5132 6.50009 -89.0581
rradius 32.0196
rwrist 16.6573
rhand -25.5119 -21.3578
rfingers 7.12502
rthumb 1.0172 -51.3351
lclavicle 5.71506e-015 -1.59028e-015
lhumerus -38.8359 1.83078 92.6137
lradius 39.3638
lwrist 7.44746
lhand -13.7402 6.30743
lfingers 7.12502
lthumb 12.3796 35.9209
rfemur -21.7067 0.426653 19.2785
rtibia 37.9288
rfoot -24.5906 -10.2188
rtoes 17.9309
lfemur -20.8868 5.38945 -22.519
ltibia 37.9745
lfoot -26.5501 -0.198886
ltoes 10.428
240
root 4.77691 16.7222 -25.6152 9.8559 -0.581325 0.565162
lowerback -5.63928 -0.0996482 -3.69381
upperback -1.15769 0.0411607 1.96869
thorax 1.96404 -0.00260933 4.1155
lowerneck -7.46157 2.42312 -3.53196
upperneck -0.894571 3.51555 0.430403
head 0.898144 1.76931 0.826544
rclavicle -5.11871e-015 -1.74931e-014
rhumerus -38.4989 6.7358 -89.1305
rradius 32.2175
rwrist 16.4211
rhand -25.4491 -21.4507
rfingers 7.12502
rthumb 1.0778 -51.4277
lclavicle -5.11871e-015 -1.74931e-014
lhumerus -38.8563 1.78933 92.5296
lradius 39.4983
lwrist 7.52195
lhand -13.6745 6.33132
lfingers 7.12502
lthumb 12.4429 35.9409
rfemur -21.7602 0.0355121 19.3557
rtibia 37.949
rfoot -24.7137 -9.70433
rtoes 18.3671
lfemur -21.5147 6.06835 -22.4769
ltibia 38.9213
lfoot -26.4769 -0.874393
ltoes 10.4546
241
root 4.77392 16.7165 -25.6219 9.88358 -0.53931 0.461448
lowerback -5.42821 -0.0890296 -3.52481
upperback -1.15444 0.0386525 1.989
thorax 1.84991 -0.00052068 4.03945
lowerneck -7.4007 2.33805 -3.62388
upperneck -1.21063 3.40437 0.500919
head 0.787944 1.71898 0.855396
rclavicle 7.95139e-016 1.19271e-015
rhumerus -38.4922 6.97754 -89.2001
rradius 32.4315
rwrist 16.1457
rhand -25.3783 -21.5392
rfingers 7.12502
rthumb 1.1462 -51.5159
lclavicle 7.95139e-016 1.19271e-015
lhumerus -38.8696 1.732 92.4545
lradius 39.6329
lwrist 7.58373
lhand -13.6054 6.35784
lfingers 7.12502
lthumb 12.5096 35.9634
rfemur -21.8009 -0.381139 19.4764
rtibia 37.9517
rfoot -24.8545 -9.13724
rtoes 18.9548
lfemur -22.2378 6.74974 -22.3894
ltibia 40.031
lfoot -26.313 -1.64902
ltoes 10.6375
242
root 4.77143 16.7109 -25.6287 9.90766 -0.493363 0.315789
lowerback -5.20782 -0.0687928 -3.31641
upperback -1.14666 0.04723 2.0215
thorax 1.73423 0.00704001 3.95452
lowerneck -7.34208 2.24728 -3.71194
upperneck -1.53167 3.2856 0.567439
head 0.677434 1.66483 0.882452
rclavicle 9.14409e-015 4.37326e-015
rhumerus -38.49 7.23689 -89.267
rradius 32.6649
rwrist 15.8238
rhand -25.3025 -21.6492
rfingers 7.12502
rthumb 1.21939 -51.6255
lclavicle 9.14409e-015 4.37326e-015
lhumerus -38.8709 1.66368 92.3912
lradius 39.7684
lwrist 7.63106
lhand -13.5314 6.37961
lfingers 7.12502
lthumb 12.5809 35.9808
rfemur -21.8284 -0.809476 19.6453
rtibia 37.9319
rfoot -24.9888 -8.55761
rtoes 19.5503
lfemur -23.0462 7.4334 -22.2525
ltibia 41.2892
lfoot -26.0586 -2.47419
ltoes 10.7387
243
root 4.76931 16.7055 -25.6353 9.92518 -0.455038 0.132931
lowerback -4.98007 -0.0363978 -3.08201
upperback -1.13272 0.0714125 2.06641
thorax 1.61945 0.0221615 3.86873
lowerneck -7.2783 2.1535 -3.79403
upperneck -1.86502 3.16228 0.629221
head 0.563008 1.60846 0.907015
rclavicle -2.48481e-015 -1.47101e-014
rhumerus -38.4939 7.51622 -89.33
rradius 32.9182
rwrist 15.4629
rhand -25.2201 -21.7667
rfingers 7.12502
rthumb 1.29903 -51.7425
lclavicle -2.48481e-015 -1.47101e-014
lhumerus -38.8579 1.59467 92.3404
lradius 39.9006
lwrist 7.66073
lhand -13.4604 6.38259
lfingers 7.12502
lthumb 12.6494 35.9796
rfemur -21.8418 -1.22861 19.8562
rtibia 37.8926
rfoot -25.0992 -8.00295
rtoes 19.9778
lfemur -23.9245 8.09252 -22.0661
ltibia 42.6728
lfoot -25.6653 -3.3547
ltoes 10.9122
244
root 4.76745 16.7006 -25.6414 9.93205 -0.434496 -0.0781871
lowerback -4.74554 0.00926024 -2.83672
upperback -1.10912 0.113732 2.12186
thorax 1.50939 0.0459253 3.7887
lowerneck -7.21395 2.05648 -3.86608
upperneck -2.20984 3.03399 0.681923
head 0.445809 1.54955 0.927191
rclavicle -4.47266e-015 -5.96354e-015
rhumerus -38.5004 7.82441 -89.3903
rradius 33.1893
rwrist 15.0652
rhand -25.1353 -21.8986
rfingers 7.12502
rthumb 1.38092 -51.8739
lclavicle -4.47266e-015 -5.96354e-015
lhumerus -38.828 1.5346 92.3003
lradius 40.0272
lwrist 7.67104
lhand -13.4082 6.37067
lfingers 7.12502
lthumb 12.6997 35.9645
rfemur -21.8376 -1.61384 20.0982
rtibia 37.8391
rfoot -25.1889 -7.50144
rtoes 20.1997
lfemur -24.8506 8.76897 -21.8425
ltibia 44.1512
lfoot -25.1338 -4.27655
ltoes 11.0088
245
root 4.76582 16.6955 -25.6467 9.92302 -0.439285 -0.297097
lowerback -4.50541 0.066356 -2.60328
upperback -1.07407 0.173051 2.18203
thorax 1.40672 0.0776588 3.72102
lowerneck -7.14702 1.95704 -3.92137
upperneck -2.5665 2.90119 0.717813
head 0.325515 1.48821 0.939444
rclavicle 3.62782e-015 -1.70955e-014
rhumerus -38.5074 8.16345 -89.4488
rradius 33.4693
rwrist 14.6524
rhand -25.0439 -22.0394
rfingers 7.12502
rthumb 1.46919 -52.0141
lclavicle 3.62782e-015 -1.70955e-014
lhumerus -38.7849 1.49401 92.2676
lradius 40.1477
lwrist 7.66412
lhand -13.3848 6.33935
lfingers 7.12502
lthumb 12.7222 35.9318
rfemur -21.8152 -1.96643 20.3481
rtibia 37.7824
rfoot -25.2818 -7.01807
rtoes 20.4375
lfemur -25.791 9.43121 -21.5986
ltibia 45.691
lfoot -24.4737 -5.1875
ltoes 10.9841
246
root 4.76428 16.6901 -25.6508 9.89576 -0.46889 -0.511849
lowerback -4.26018 0.13253 -2.39651
upperback -1.0274 0.246833 2.24406
thorax 1.31212 0.116108 3.6708
lowerneck -7.07404 1.85753 -3.96484
upperneck -2.93652 2.76719 0.746086
head 0.20078 1.42626 0.947562
rclavicle 2.23633e-015 1.35174e-014
rhumerus -38.5073 8.53273 -89.5051
rradius 33.7439
rwrist 14.2341
rhand -24.9484 -22.1753
rfingers 7.12502
rthumb 1.5614 -52.1494
lclavicle 2.23633e-015 1.35174e-014
lhumerus -38.7343 1.48153 92.2396
lradius 40.2631
lwrist 7.64309
lhand -13.3975 6.30328
lfingers 7.12502
lthumb 12.71 35.8965
rfemur -21.772 -2.28181 20.5919
rtibia 37.7305
rfoot -25.4003 -6.53353
rtoes 20.6888
lfemur -26.7258 10.09 -21.3522
ltibia 47.26
lfoot -23.6831 -6.05703
ltoes 10.8255
247
root 4.76295 16.6846 -25.6536 9.85433 -0.528107 -0.71723
lowerback -4.0084 0.20481 -2.21872
upperback -0.974815 0.331056 2.30493
thorax 1.21923 0.159509 3.63583
lowerneck -6.98716 1.76375 -4.00446
upperneck -3.32417 2.63997 0.78035
head 0.0685131 1.36788 0.957256
rclavicle -8.94531e-015 -9.14409e-015
rhumerus -38.4992 8.93198 -89.5628
rradius 34.0013
rwrist 13.8332
rhand -24.8604 -22.3109
rfingers 7.12502
rthumb 1.64636 -52.2843
lclavicle -8.94531e-015 -9.14409e-015
lhumerus -38.6865 1.50703 92.2086
lradius 40.3733
lwrist 7.62021
lhand -13.4478 6.24935
lfingers 7.12502
lthumb 12.6616 35.8456
rfemur -21.7131 -2.5558 20.822
rtibia 37.6872
rfoot -25.5247 -6.07194
rtoes 20.9014
lfemur -27.6502 10.7441 -21.1133
ltibia 48.8292
lfoot -22.8061 -6.83786
ltoes 10.4418
248
root 4.76209 16.6792 -25.6549 9.80279 -0.618534 -0.898488
lowerback -3.75858 0.280736 -2.08287
upperback -0.91838 0.422887 2.36039
thorax 1.13078 0.206437 3.61885
lowerneck -6.88796 1.67614 -4.03714
upperneck -3.71889 2.52009 0.818122
head -0.0677471 1.31313 0.967458
rclavicle -1.88845e-015 -8.74653e-015
rhumerus -38.4721 9.35345 -89.6192
rradius 34.222
rwrist 13.4719
rhand -24.7697 -22.4413
rfingers 7.12502
rthumb 1.734 -52.414
lclavicle -1.88845e-015 -8.74653e-015
lhumerus -38.6481 1.57908 92.1716
lradius 40.4781
lwrist 7.60151
lhand -13.528 6.18157
lfingers 7.12502
lthumb 12.5842 35.7825
rfemur -21.6393 -2.78811 21.0186
rtibia 37.6475
rfoot -25.6339 -5.64387
rtoes 21.1032
lfemur -28.5533 11.3841 -20.8979
ltibia 50.3712
lfoot -21.8716 -7.54613
ltoes 10.1027
